<svg id="visual" viewBox="0 0 540 960" width="540" height="960" xmlns="http://www.w3.org/2000/svg" xmlns:xlink="http://www.w3.org/1999/xlink" version="1.1"><rect x="0" y="0" width="540" height="960" fill="#6CBAD9"></rect><path d="M0 127L15 123.2C30 119.3 60 111.7 90 110C120 108.3 150 112.7 180 117.2C210 121.7 240 126.3 270 130.2C300 134 330 137 360 138.3C390 139.7 420 139.3 450 136C480 132.7 510 126.3 525 123.2L540 120L540 0L525 0C510 0 480 0 450 0C420 0 390 0 360 0C330 0 300 0 270 0C240 0 210 0 180 0C150 0 120 0 90 0C60 0 30 0 15 0L0 0Z" fill="#02735E" stroke-linecap="round" stroke-linejoin="miter"></path></svg>