<svg id="visual" viewBox="0 0 960 540" width="960" height="540" xmlns="http://www.w3.org/2000/svg" xmlns:xlink="http://www.w3.org/1999/xlink" version="1.1"><rect x="0" y="0" width="960" height="540" fill="#6CBAD9"></rect><path d="M0 71L26.7 68.8C53.3 66.7 106.7 62.3 160 61.5C213.3 60.7 266.7 63.3 320 65.8C373.3 68.3 426.7 70.7 480 72.7C533.3 74.7 586.7 76.3 640 77.2C693.3 78 746.7 78 800 76.2C853.3 74.3 906.7 70.7 933.3 68.8L960 67L960 0L933.3 0C906.7 0 853.3 0 800 0C746.7 0 693.3 0 640 0C586.7 0 533.3 0 480 0C426.7 0 373.3 0 320 0C266.7 0 213.3 0 160 0C106.7 0 53.3 0 26.7 0L0 0Z" fill="#02735E" stroke-linecap="round" stroke-linejoin="miter"></path></svg>