<svg id="visual" viewBox="0 0 540 960" width="540" height="960" xmlns="http://www.w3.org/2000/svg" xmlns:xlink="http://www.w3.org/1999/xlink" version="1.1"><rect x="0" y="0" width="540" height="960" fill="#6CBAD9"></rect><path d="M70 0L71 32C72 64 74 128 70.2 192C66.3 256 56.7 320 50.2 384C43.7 448 40.3 512 39.3 576C38.3 640 39.7 704 45.5 768C51.3 832 61.7 896 66.8 928L72 960L0 960L0 928C0 896 0 832 0 768C0 704 0 640 0 576C0 512 0 448 0 384C0 320 0 256 0 192C0 128 0 64 0 32L0 0Z" fill="#02735E" stroke-linecap="round" stroke-linejoin="miter"></path></svg>