<svg id="visual" viewBox="0 0 675 900" width="675" height="900" xmlns="http://www.w3.org/2000/svg" xmlns:xlink="http://www.w3.org/1999/xlink" version="1.1"><rect x="0" y="0" width="675" height="900" fill="#6CBAD9"></rect><path d="M87 0L88.3 30C89.7 60 92.3 120 87.5 180C82.7 240 70.3 300 62.2 360C54 420 50 480 48.8 540C47.7 600 49.3 660 56.5 720C63.7 780 76.3 840 82.7 870L89 900L0 900L0 870C0 840 0 780 0 720C0 660 0 600 0 540C0 480 0 420 0 360C0 300 0 240 0 180C0 120 0 60 0 30L0 0Z" fill="#02735E" stroke-linecap="round" stroke-linejoin="miter"></path></svg>